<?xml version="1.0" standalone="no"?><!DOCTYPE svg PUBLIC "-//W3C//DTD SVG 1.1//EN" "http://www.w3.org/Graphics/SVG/1.1/DTD/svg11.dtd"><svg t="1623491404099" class="icon" viewBox="0 0 1024 1024" version="1.1" xmlns="http://www.w3.org/2000/svg" p-id="1003" xmlns:xlink="http://www.w3.org/1999/xlink" width="32" height="32"><defs><style type="text/css"></style></defs><path d="M641.49969326 585.98769888c0 21.10700697-11.00620047 55.5119946-37.00799645 55.51199441-26.03008944 0-37.0362896-34.40498757-37.03628981-55.51199441 0-21.07871356 11.00620047-55.5119946 37.03628981-55.51199425 26.0017954 0 37.00799642 34.43328089 37.00799648 55.51199425zM419.5083032 530.47570455c-26.0017954 0-37.00799642 34.43328089-37.00799649 55.51199433 0 21.10700697 11.00620047 55.5119946 37.00799649 55.51199441s37.00799642-34.40498757 37.00799589-55.51199441c0-21.07871356-11.00620047-55.5119946-37.00799589-55.51199425zM752.49538854 535.1158507c0 32.11320786-3.16888043 66.20696569-17.62689739 95.68887123-38.1680329 77.18487277-143.08060917 84.68267019-218.22834501 84.6826701-76.3077721 0-187.58640319-6.62069669-227.19740837-84.6826701C274.67349179 601.60575217 271.50461146 567.22905852 271.50461146 535.1158507c0-42.21401417 11.57207216-82.07966122 39.32806943-114.44751108a158.84013077 158.84013077 0 0 1-7.80902661-49.17423384c0-21.67287821 4.8947885-43.31746334 14.74095247-63.009792 45.6658303 0 74.86479953 19.94697058 109.55272295 47.10880304a386.82975903 386.82975903 0 0 1 89.32281644-10.10080645c27.16183189 0 54.63489369 2.91423813 80.94791877 9.25199893 34.40498757-26.87889614 63.57566331-46.25999533 108.67562176-46.25999552 9.84616401 19.66403433 14.7409526 41.33691356 14.74095292 63.009792 0 16.49515415-2.60300887 32.96201507-7.80902705 48.58006847C740.95160992 452.7249602 752.49538854 492.90183655 752.49538854 535.1158507z m-64.7639933 50.87184818c0-44.22285797-26.85060282-83.23969782-73.98769885-83.23969788-19.06986963 0-37.2626383 3.48010963-56.36080184 6.08311857-15.02388831 2.32007337-30.04777642 3.16888043-45.38289455 3.16888043s-30.35900635-0.8488074-45.38289455-3.16888043c-18.78693379-2.60300887-37.2909323-6.08311844-56.36080184-6.08311857-47.10880277 0-73.98769888 39.0168401-73.98769885 83.23969788 0 88.44571553 80.91962457 102.02663214 151.45550794 102.02663218h48.58006852c70.53588273 0.02829339 151.42721399-13.58091594 151.42721402-102.02663218z" p-id="1004"></path></svg>